# xmcd
#
# Track frame offsets: 
#        150
#        36444
#        67664
#
# Disc length: 1312 seconds
#
# Revision: 0
# Processed by: cddbd v1.5.2PL0 Copyright (c) Steve Scherf et al.
# Submitted via: ExactAudioCopy v0.99pb5
#
DISCID=1e051e03
DTITLE=The Time - Live At the Logo Hamburg Germany 10.03.96 CD2
DYEAR=1996
DGENRE=Acoustic
TTITLE0=MPLS Jam
TTITLE1=Jerk Out
TTITLE2=Pandemonium
EXTD=
EXTT0=
EXTT1=
EXTT2=
PLAYORDER=
